<?xml version="1.0" standalone="no"?>
<!DOCTYPE svg PUBLIC "-//W3C//DTD SVG 20010904//EN"
 "http://www.w3.org/TR/2001/REC-SVG-20010904/DTD/svg10.dtd">
<svg version="1.0" xmlns="http://www.w3.org/2000/svg"
 width="139.000000pt" height="139.000000pt" viewBox="0 0 139.000000 139.000000"
 preserveAspectRatio="xMidYMid meet">

<g transform="translate(0.000000,139.000000) scale(0.100000,-0.100000)"
fill="#000000" stroke="none">
<path d="M560 1200 c-240 -45 -271 -53 -294 -79 -18 -20 -43 -113 -116 -431
-23 -102 -58 -254 -77 -338 -47 -201 -52 -194 136 -190 l136 3 7 80 c4 44 11
142 14 218 8 185 5 181 162 185 113 3 120 2 146 -20 l27 -23 1 -205 c0 -113 4
-213 9 -222 8 -15 24 -18 90 -18 132 0 119 -55 119 506 0 532 0 528 -60 559
-40 21 -64 18 -300 -25z m62 -239 c48 -53 31 -143 -32 -176 -37 -19 -63 -19
-100 0 -42 21 -60 53 -60 103 0 37 6 50 35 79 33 33 39 35 82 30 37 -4 54 -12
75 -36z"/>
<path d="M1099 971 c-24 -24 -29 -38 -29 -76 0 -38 5 -52 29 -76 24 -24 38
-29 76 -29 66 0 105 39 105 105 0 66 -39 105 -105 105 -38 0 -52 -5 -76 -29z"/>
<path d="M1065 668 c-43 -25 -44 -34 -45 -265 0 -210 1 -223 19 -233 11 -5 76
-10 144 -10 104 0 127 3 138 17 11 12 15 63 17 201 4 211 0 245 -33 278 -22
22 -32 24 -122 24 -55 0 -107 -6 -118 -12z"/>
</g>
</svg>
